# xmcd
#
# Track frame offsets: 
#        150
#        16572
#        33785
#        53721
#        76406
#        101089
#        127372
#        147203
#        169665
#        187703
#        207823
#        244516
#        262599
#        271860
#        291218
#        314481
#
# Disc length: 4443 seconds
#
# Revision: 0
# Processed by: cddbd v1.5.2PL0 Copyright (c) Steve Scherf et al.
# Submitted via: ExactAudioCopy v0.95b3
#
DISCID=ce115910
DTITLE=Cross Canadian Ragweed - Back To Tulsa: Live And Loud At Cain's
DTITLE=Ballroom [CD1]
DYEAR=2006
DGENRE=Country
TTITLE0=DimeBag
TTITLE1=Number
TTITLE2=Lonely Girl
TTITLE3=Late Last Night
TTITLE4=Final Curtain
TTITLE5=Sister
TTITLE6=Constantly
TTITLE7=Don't Need You
TTITLE8=Fightin' For
TTITLE9=When It All Goes Down - Featuring Wade Bowen
TTITLE10=Anywhere But Here
TTITLE11=Daddy's At Home
TTITLE12=The Needle And The Damage Done
TTITLE13=When Will It End - Featuring Stoney LaRue
TTITLE14=Back Around
TTITLE15=Brooklyn Kid
EXTD=
EXTT0=
EXTT1=
EXTT2=
EXTT3=
EXTT4=
EXTT5=
EXTT6=
EXTT7=
EXTT8=
EXTT9=
EXTT10=
EXTT11=
EXTT12=
EXTT13=
EXTT14=
EXTT15=
PLAYORDER=
